<svg version="1.0" xmlns="http://www.w3.org/2000/svg" width="234.667" height="234.667" viewBox="0 0 176 176">
  <style>
    path {
      fill: black;
    }
    @media (prefers-color-scheme: dark) {
      path {
        fill: white;
      }
    }
  </style>
  <path d="M84.8 23.1l-.3 13.2-5.5 1.4c-7.7 2-13.5 5.6-21.2 13.4C50 59 44.4 69.6 42.7 79.6L41.6 86H16v5h25.6l1.1 6.5c.6 3.6 2.8 10 4.9 14.2 6.8 13.8 22 26.5 33.6 28.1l3.8.5v13.4c0 13.4 0 13.4 2.3 13.1 2.1-.3 2.2-.7 2.5-13.4l.3-13.2 3.7-.6c5.9-.9 15.2-6 21-11.6 9.2-8.8 15.6-20.8 17.7-33.3l.6-3.7H158v-5H133.3l-1.3-6.2c-2.4-12.5-11.1-26.7-20.7-34-6.1-4.6-14.9-8.8-18.5-8.8H90V10h-4.9l-.3 13.1zm.2 40.4V86H63v-3.9c0-9 5.1-24.2 10.8-32.5 2.4-3.5 8.6-8.6 10.4-8.6.5 0 .8 10.1.8 22.5zM96.4 45c7.3 6.8 13.5 21 15.1 34.7l.7 6.3H90V63.5c0-14.7.4-22.5 1-22.5s3 1.8 5.4 4zM85 113.5c0 12.4-.3 22.5-.6 22.5-1.7 0-7.4-4.4-9.6-7.3-5.6-7.3-10.5-20.5-11.5-30.9l-.6-6.8H85v22.5zm26.5-16.3c-1.9 16.5-10.1 33-18.6 37.4l-2.9 1.5V91h22.2l-.7 6.2z"/>
</svg>